<?xml version="1.0" encoding="UTF-8" standalone="no"?>
<!DOCTYPE svg PUBLIC "-//W3C//DTD SVG 1.1//EN"
 "http://www.w3.org/Graphics/SVG/1.1/DTD/svg11.dtd">
<!-- Generated by graphviz version 2.38.0 (20140413.2041)
 -->
<!-- Title: %3 Pages: 1 -->
<svg width="707pt" height="305pt"
 viewBox="0.00 0.00 706.70 305.00" xmlns="http://www.w3.org/2000/svg" xmlns:xlink="http://www.w3.org/1999/xlink">
<g id="graph0" class="graph" transform="scale(1 1) rotate(0) translate(4 301)">
<title>%3</title>
<polygon fill="white" stroke="none" points="-4,4 -4,-301 702.697,-301 702.697,4 -4,4"/>
<!-- be7a51f3&#45;13a1&#45;4ba4&#45;9093&#45;9652c6158719 -->
<g id="node1" class="node"><title>be7a51f3&#45;13a1&#45;4ba4&#45;9093&#45;9652c6158719</title>
<ellipse fill="none" stroke="black" cx="271.697" cy="-279" rx="35.194" ry="18"/>
<text text-anchor="middle" x="271.697" y="-275.3" font-family="Times New Roman,serif" font-size="14.00">Округ</text>
</g>
<!-- aad957fd&#45;2b21&#45;4848&#45;94af&#45;8ec3a49ba7ff -->
<g id="node2" class="node"><title>aad957fd&#45;2b21&#45;4848&#45;94af&#45;8ec3a49ba7ff</title>
<ellipse fill="none" stroke="black" cx="37.6967" cy="-192" rx="37.8943" ry="18"/>
<text text-anchor="middle" x="37.6967" y="-188.3" font-family="Times New Roman,serif" font-size="14.00">платно</text>
</g>
<!-- be7a51f3&#45;13a1&#45;4ba4&#45;9093&#45;9652c6158719&#45;&gt;aad957fd&#45;2b21&#45;4848&#45;94af&#45;8ec3a49ba7ff -->
<g id="edge1" class="edge"><title>be7a51f3&#45;13a1&#45;4ba4&#45;9093&#45;9652c6158719&#45;&gt;aad957fd&#45;2b21&#45;4848&#45;94af&#45;8ec3a49ba7ff</title>
<path fill="none" stroke="black" d="M237.157,-275.204C187.377,-270.637 98.495,-260.307 71.6967,-243 62.5698,-237.106 55.2653,-227.805 49.8015,-218.815"/>
<polygon fill="black" stroke="black" points="52.8616,-217.116 44.952,-210.067 46.7393,-220.51 52.8616,-217.116"/>
<text text-anchor="middle" x="102.197" y="-231.8" font-family="Times New Roman,serif" font-size="14.00">Северный</text>
</g>
<!-- 98d9f46e&#45;8d06&#45;47b5&#45;9ece&#45;0a32635c9686 -->
<g id="node3" class="node"><title>98d9f46e&#45;8d06&#45;47b5&#45;9ece&#45;0a32635c9686</title>
<ellipse fill="none" stroke="black" cx="130.697" cy="-192" rx="37.8943" ry="18"/>
<text text-anchor="middle" x="130.697" y="-188.3" font-family="Times New Roman,serif" font-size="14.00">платно</text>
</g>
<!-- be7a51f3&#45;13a1&#45;4ba4&#45;9093&#45;9652c6158719&#45;&gt;98d9f46e&#45;8d06&#45;47b5&#45;9ece&#45;0a32635c9686 -->
<g id="edge2" class="edge"><title>be7a51f3&#45;13a1&#45;4ba4&#45;9093&#45;9652c6158719&#45;&gt;98d9f46e&#45;8d06&#45;47b5&#45;9ece&#45;0a32635c9686</title>
<path fill="none" stroke="black" d="M236.624,-277.395C208.166,-275.011 168.923,-267.128 144.697,-243 138.679,-237.007 135.194,-228.652 133.193,-220.486"/>
<polygon fill="black" stroke="black" points="136.599,-219.652 131.373,-210.436 129.711,-220.899 136.599,-219.652"/>
<text text-anchor="middle" x="203.697" y="-231.8" font-family="Times New Roman,serif" font-size="14.00">Северо&#45;Восточный</text>
</g>
<!-- 788f06a4&#45;9bb0&#45;4c6f&#45;a26c&#45;bd6506d8f9cb -->
<g id="node4" class="node"><title>788f06a4&#45;9bb0&#45;4c6f&#45;a26c&#45;bd6506d8f9cb</title>
<ellipse fill="none" stroke="black" cx="262.697" cy="-192" rx="54.6905" ry="18"/>
<text text-anchor="middle" x="262.697" y="-188.3" font-family="Times New Roman,serif" font-size="14.00">Освещение</text>
</g>
<!-- be7a51f3&#45;13a1&#45;4ba4&#45;9093&#45;9652c6158719&#45;&gt;788f06a4&#45;9bb0&#45;4c6f&#45;a26c&#45;bd6506d8f9cb -->
<g id="edge3" class="edge"><title>be7a51f3&#45;13a1&#45;4ba4&#45;9093&#45;9652c6158719&#45;&gt;788f06a4&#45;9bb0&#45;4c6f&#45;a26c&#45;bd6506d8f9cb</title>
<path fill="none" stroke="black" d="M269.875,-260.799C268.643,-249.163 266.99,-233.548 265.581,-220.237"/>
<polygon fill="black" stroke="black" points="269.049,-219.751 264.515,-210.175 262.088,-220.488 269.049,-219.751"/>
<text text-anchor="middle" x="309.697" y="-231.8" font-family="Times New Roman,serif" font-size="14.00">Центральный</text>
</g>
<!-- 94a45b97&#45;51f0&#45;4ef0&#45;ac76&#45;069813d8620e -->
<g id="node7" class="node"><title>94a45b97&#45;51f0&#45;4ef0&#45;ac76&#45;069813d8620e</title>
<ellipse fill="none" stroke="black" cx="376.697" cy="-192" rx="37.8943" ry="18"/>
<text text-anchor="middle" x="376.697" y="-188.3" font-family="Times New Roman,serif" font-size="14.00">платно</text>
</g>
<!-- be7a51f3&#45;13a1&#45;4ba4&#45;9093&#45;9652c6158719&#45;&gt;94a45b97&#45;51f0&#45;4ef0&#45;ac76&#45;069813d8620e -->
<g id="edge6" class="edge"><title>be7a51f3&#45;13a1&#45;4ba4&#45;9093&#45;9652c6158719&#45;&gt;94a45b97&#45;51f0&#45;4ef0&#45;ac76&#45;069813d8620e</title>
<path fill="none" stroke="black" d="M303.307,-270.785C320.33,-265.52 340.656,-256.825 354.697,-243 361.205,-236.591 365.93,-227.928 369.293,-219.613"/>
<polygon fill="black" stroke="black" points="372.598,-220.763 372.639,-210.168 366,-218.425 372.598,-220.763"/>
<text text-anchor="middle" x="399.697" y="-231.8" font-family="Times New Roman,serif" font-size="14.00">Восточный</text>
</g>
<!-- 30edb542&#45;de44&#45;4bb6&#45;ae6c&#45;9b652d23a470 -->
<g id="node8" class="node"><title>30edb542&#45;de44&#45;4bb6&#45;ae6c&#45;9b652d23a470</title>
<ellipse fill="none" stroke="black" cx="498.697" cy="-192" rx="59.5901" ry="18"/>
<text text-anchor="middle" x="498.697" y="-188.3" font-family="Times New Roman,serif" font-size="14.00">Тип объекта</text>
</g>
<!-- be7a51f3&#45;13a1&#45;4ba4&#45;9093&#45;9652c6158719&#45;&gt;30edb542&#45;de44&#45;4bb6&#45;ae6c&#45;9b652d23a470 -->
<g id="edge7" class="edge"><title>be7a51f3&#45;13a1&#45;4ba4&#45;9093&#45;9652c6158719&#45;&gt;30edb542&#45;de44&#45;4bb6&#45;ae6c&#45;9b652d23a470</title>
<path fill="none" stroke="black" d="M306.211,-275.668C341.123,-272.208 395.899,-263.709 438.697,-243 452.119,-236.505 465.081,-226.364 475.502,-216.908"/>
<polygon fill="black" stroke="black" points="478.075,-219.292 482.941,-209.881 473.268,-214.203 478.075,-219.292"/>
<text text-anchor="middle" x="513.197" y="-231.8" font-family="Times New Roman,serif" font-size="14.00">Юго&#45;Восточный</text>
</g>
<!-- 996e8dd3&#45;210e&#45;4bc7&#45;8ab5&#45;9cc8c3eec922 -->
<g id="node5" class="node"><title>996e8dd3&#45;210e&#45;4bc7&#45;8ab5&#45;9cc8c3eec922</title>
<ellipse fill="none" stroke="black" cx="156.697" cy="-105" rx="50.8918" ry="18"/>
<text text-anchor="middle" x="156.697" y="-101.3" font-family="Times New Roman,serif" font-size="14.00">бесплатно</text>
</g>
<!-- 788f06a4&#45;9bb0&#45;4c6f&#45;a26c&#45;bd6506d8f9cb&#45;&gt;996e8dd3&#45;210e&#45;4bc7&#45;8ab5&#45;9cc8c3eec922 -->
<g id="edge4" class="edge"><title>788f06a4&#45;9bb0&#45;4c6f&#45;a26c&#45;bd6506d8f9cb&#45;&gt;996e8dd3&#45;210e&#45;4bc7&#45;8ab5&#45;9cc8c3eec922</title>
<path fill="none" stroke="black" d="M227.717,-177.984C215.505,-172.392 202.232,-165.037 191.697,-156 183.698,-149.139 176.632,-140.062 170.981,-131.527"/>
<polygon fill="black" stroke="black" points="173.888,-129.575 165.625,-122.945 167.95,-133.281 173.888,-129.575"/>
<text text-anchor="middle" x="225.197" y="-144.8" font-family="Times New Roman,serif" font-size="14.00">смешанное</text>
</g>
<!-- 019e6e10&#45;17d5&#45;4125&#45;8899&#45;1d955156986e -->
<g id="node6" class="node"><title>019e6e10&#45;17d5&#45;4125&#45;8899&#45;1d955156986e</title>
<ellipse fill="none" stroke="black" cx="262.697" cy="-105" rx="37.8943" ry="18"/>
<text text-anchor="middle" x="262.697" y="-101.3" font-family="Times New Roman,serif" font-size="14.00">платно</text>
</g>
<!-- 788f06a4&#45;9bb0&#45;4c6f&#45;a26c&#45;bd6506d8f9cb&#45;&gt;019e6e10&#45;17d5&#45;4125&#45;8899&#45;1d955156986e -->
<g id="edge5" class="edge"><title>788f06a4&#45;9bb0&#45;4c6f&#45;a26c&#45;bd6506d8f9cb&#45;&gt;019e6e10&#45;17d5&#45;4125&#45;8899&#45;1d955156986e</title>
<path fill="none" stroke="black" d="M262.697,-173.799C262.697,-162.163 262.697,-146.548 262.697,-133.237"/>
<polygon fill="black" stroke="black" points="266.197,-133.175 262.697,-123.175 259.197,-133.175 266.197,-133.175"/>
<text text-anchor="middle" x="341.197" y="-144.8" font-family="Times New Roman,serif" font-size="14.00">газоразрядными лампами</text>
</g>
<!-- 746eb397&#45;3dd8&#45;4536&#45;b09d&#45;42a620664945 -->
<g id="node9" class="node"><title>746eb397&#45;3dd8&#45;4536&#45;b09d&#45;42a620664945</title>
<ellipse fill="none" stroke="black" cx="392.697" cy="-105" rx="54.6905" ry="18"/>
<text text-anchor="middle" x="392.697" y="-101.3" font-family="Times New Roman,serif" font-size="14.00">Освещение</text>
</g>
<!-- 30edb542&#45;de44&#45;4bb6&#45;ae6c&#45;9b652d23a470&#45;&gt;746eb397&#45;3dd8&#45;4536&#45;b09d&#45;42a620664945 -->
<g id="edge8" class="edge"><title>30edb542&#45;de44&#45;4bb6&#45;ae6c&#45;9b652d23a470&#45;&gt;746eb397&#45;3dd8&#45;4536&#45;b09d&#45;42a620664945</title>
<path fill="none" stroke="black" d="M478.759,-175.012C462.325,-161.834 438.829,-142.993 420.538,-128.326"/>
<polygon fill="black" stroke="black" points="422.536,-125.442 412.545,-121.916 418.157,-130.903 422.536,-125.442"/>
<text text-anchor="middle" x="470.197" y="-144.8" font-family="Times New Roman,serif" font-size="14.00">Каток</text>
</g>
<!-- 7b359a95&#45;ba50&#45;47fe&#45;94ce&#45;7be75066c8e4 -->
<g id="node12" class="node"><title>7b359a95&#45;ba50&#45;47fe&#45;94ce&#45;7be75066c8e4</title>
<ellipse fill="none" stroke="black" cx="502.697" cy="-105" rx="37.8943" ry="18"/>
<text text-anchor="middle" x="502.697" y="-101.3" font-family="Times New Roman,serif" font-size="14.00">платно</text>
</g>
<!-- 30edb542&#45;de44&#45;4bb6&#45;ae6c&#45;9b652d23a470&#45;&gt;7b359a95&#45;ba50&#45;47fe&#45;94ce&#45;7be75066c8e4 -->
<g id="edge11" class="edge"><title>30edb542&#45;de44&#45;4bb6&#45;ae6c&#45;9b652d23a470&#45;&gt;7b359a95&#45;ba50&#45;47fe&#45;94ce&#45;7be75066c8e4</title>
<path fill="none" stroke="black" d="M499.506,-173.799C500.054,-162.163 500.789,-146.548 501.415,-133.237"/>
<polygon fill="black" stroke="black" points="504.914,-133.329 501.888,-123.175 497.922,-133 504.914,-133.329"/>
<text text-anchor="middle" x="551.697" y="-144.8" font-family="Times New Roman,serif" font-size="14.00">Ледовый дворец</text>
</g>
<!-- be25a470&#45;f55c&#45;4e05&#45;b069&#45;38b0866ab943 -->
<g id="node13" class="node"><title>be25a470&#45;f55c&#45;4e05&#45;b069&#45;38b0866ab943</title>
<ellipse fill="none" stroke="black" cx="627.697" cy="-105" rx="37.8943" ry="18"/>
<text text-anchor="middle" x="627.697" y="-101.3" font-family="Times New Roman,serif" font-size="14.00">платно</text>
</g>
<!-- 30edb542&#45;de44&#45;4bb6&#45;ae6c&#45;9b652d23a470&#45;&gt;be25a470&#45;f55c&#45;4e05&#45;b069&#45;38b0866ab943 -->
<g id="edge12" class="edge"><title>30edb542&#45;de44&#45;4bb6&#45;ae6c&#45;9b652d23a470&#45;&gt;be25a470&#45;f55c&#45;4e05&#45;b069&#45;38b0866ab943</title>
<path fill="none" stroke="black" d="M550.863,-183.144C569.954,-178.065 590.562,-169.715 605.697,-156 612.566,-149.775 617.397,-141.014 620.745,-132.561"/>
<polygon fill="black" stroke="black" points="624.107,-133.545 624.027,-122.95 617.483,-131.283 624.107,-133.545"/>
<text text-anchor="middle" x="657.197" y="-144.8" font-family="Times New Roman,serif" font-size="14.00">Ледовое поле</text>
</g>
<!-- 40be8639&#45;197c&#45;46c4&#45;bac8&#45;cc651054fb76 -->
<g id="node10" class="node"><title>40be8639&#45;197c&#45;46c4&#45;bac8&#45;cc651054fb76</title>
<ellipse fill="none" stroke="black" cx="339.697" cy="-18" rx="50.8918" ry="18"/>
<text text-anchor="middle" x="339.697" y="-14.3" font-family="Times New Roman,serif" font-size="14.00">бесплатно</text>
</g>
<!-- 746eb397&#45;3dd8&#45;4536&#45;b09d&#45;42a620664945&#45;&gt;40be8639&#45;197c&#45;46c4&#45;bac8&#45;cc651054fb76 -->
<g id="edge9" class="edge"><title>746eb397&#45;3dd8&#45;4536&#45;b09d&#45;42a620664945&#45;&gt;40be8639&#45;197c&#45;46c4&#45;bac8&#45;cc651054fb76</title>
<path fill="none" stroke="black" d="M372.952,-88.0126C367.091,-82.4854 361.074,-75.9266 356.697,-69 352.269,-61.9943 348.849,-53.7023 346.276,-45.9057"/>
<polygon fill="black" stroke="black" points="349.566,-44.6861 343.37,-36.0917 342.854,-46.6739 349.566,-44.6861"/>
<text text-anchor="middle" x="390.197" y="-57.8" font-family="Times New Roman,serif" font-size="14.00">смешанное</text>
</g>
<!-- af062061&#45;da8f&#45;45cb&#45;b6d8&#45;64a7b3c60b90 -->
<g id="node11" class="node"><title>af062061&#45;da8f&#45;45cb&#45;b6d8&#45;64a7b3c60b90</title>
<ellipse fill="none" stroke="black" cx="445.697" cy="-18" rx="37.8943" ry="18"/>
<text text-anchor="middle" x="445.697" y="-14.3" font-family="Times New Roman,serif" font-size="14.00">платно</text>
</g>
<!-- 746eb397&#45;3dd8&#45;4536&#45;b09d&#45;42a620664945&#45;&gt;af062061&#45;da8f&#45;45cb&#45;b6d8&#45;64a7b3c60b90 -->
<g id="edge10" class="edge"><title>746eb397&#45;3dd8&#45;4536&#45;b09d&#45;42a620664945&#45;&gt;af062061&#45;da8f&#45;45cb&#45;b6d8&#45;64a7b3c60b90</title>
<path fill="none" stroke="black" d="M408.963,-87.7638C414.084,-82.1241 419.494,-75.5618 423.697,-69 428.372,-61.7004 432.514,-53.239 435.906,-45.3762"/>
<polygon fill="black" stroke="black" points="439.248,-46.4504 439.787,-35.8693 432.767,-43.8049 439.248,-46.4504"/>
<text text-anchor="middle" x="509.197" y="-57.8" font-family="Times New Roman,serif" font-size="14.00">газоразрядными лампами</text>
</g>
</g>
</svg>
