<?xml version="1.0" encoding="UTF-8" standalone="no"?>
<!DOCTYPE svg PUBLIC "-//W3C//DTD SVG 1.1//EN"
 "http://www.w3.org/Graphics/SVG/1.1/DTD/svg11.dtd">
<!-- Generated by graphviz version 2.38.0 (20140413.2041)
 -->
<!-- Title: %3 Pages: 1 -->
<svg width="1403pt" height="305pt"
 viewBox="0.00 0.00 1402.70 305.00" xmlns="http://www.w3.org/2000/svg" xmlns:xlink="http://www.w3.org/1999/xlink">
<g id="graph0" class="graph" transform="scale(1 1) rotate(0) translate(4 301)">
<title>%3</title>
<polygon fill="white" stroke="none" points="-4,4 -4,-301 1398.7,-301 1398.7,4 -4,4"/>
<!-- 16cf1677&#45;2707&#45;4386&#45;b993&#45;6939f968ffa9 -->
<g id="node1" class="node"><title>16cf1677&#45;2707&#45;4386&#45;b993&#45;6939f968ffa9</title>
<ellipse fill="none" stroke="black" cx="972.697" cy="-279" rx="59.5901" ry="18"/>
<text text-anchor="middle" x="972.697" y="-275.3" font-family="Times New Roman,serif" font-size="14.00">Тип объекта</text>
</g>
<!-- 7c9cc038&#45;0256&#45;4dd0&#45;b0ee&#45;43eb69aeed6f -->
<g id="node2" class="node"><title>7c9cc038&#45;0256&#45;4dd0&#45;b0ee&#45;43eb69aeed6f</title>
<ellipse fill="none" stroke="black" cx="258.697" cy="-192" rx="54.6905" ry="18"/>
<text text-anchor="middle" x="258.697" y="-188.3" font-family="Times New Roman,serif" font-size="14.00">Освещение</text>
</g>
<!-- 16cf1677&#45;2707&#45;4386&#45;b993&#45;6939f968ffa9&#45;&gt;7c9cc038&#45;0256&#45;4dd0&#45;b0ee&#45;43eb69aeed6f -->
<g id="edge1" class="edge"><title>16cf1677&#45;2707&#45;4386&#45;b993&#45;6939f968ffa9&#45;&gt;7c9cc038&#45;0256&#45;4dd0&#45;b0ee&#45;43eb69aeed6f</title>
<path fill="none" stroke="black" d="M918.151,-271.506C787.411,-255.942 456.871,-216.592 319.757,-200.269"/>
<polygon fill="black" stroke="black" points="319.785,-196.748 309.441,-199.041 318.957,-203.699 319.785,-196.748"/>
<text text-anchor="middle" x="677.197" y="-231.8" font-family="Times New Roman,serif" font-size="14.00">Каток</text>
</g>
<!-- a254f788&#45;d57a&#45;4502&#45;8362&#45;a333d5510135 -->
<g id="node8" class="node"><title>a254f788&#45;d57a&#45;4502&#45;8362&#45;a333d5510135</title>
<ellipse fill="none" stroke="black" cx="768.697" cy="-192" rx="35.194" ry="18"/>
<text text-anchor="middle" x="768.697" y="-188.3" font-family="Times New Roman,serif" font-size="14.00">Округ</text>
</g>
<!-- 16cf1677&#45;2707&#45;4386&#45;b993&#45;6939f968ffa9&#45;&gt;a254f788&#45;d57a&#45;4502&#45;8362&#45;a333d5510135 -->
<g id="edge7" class="edge"><title>16cf1677&#45;2707&#45;4386&#45;b993&#45;6939f968ffa9&#45;&gt;a254f788&#45;d57a&#45;4502&#45;8362&#45;a333d5510135</title>
<path fill="none" stroke="black" d="M925.904,-267.709C902.759,-261.839 874.709,-253.536 850.697,-243 831.934,-234.768 812.29,-222.918 796.934,-212.821"/>
<polygon fill="black" stroke="black" points="798.683,-209.779 788.428,-207.118 794.785,-215.594 798.683,-209.779"/>
<text text-anchor="middle" x="892.197" y="-231.8" font-family="Times New Roman,serif" font-size="14.00">Ледовое поле</text>
</g>
<!-- 794e2900&#45;d702&#45;4c32&#45;aff6&#45;2480115d608b -->
<g id="node14" class="node"><title>794e2900&#45;d702&#45;4c32&#45;aff6&#45;2480115d608b</title>
<ellipse fill="none" stroke="black" cx="933.697" cy="-192" rx="50.8918" ry="18"/>
<text text-anchor="middle" x="933.697" y="-188.3" font-family="Times New Roman,serif" font-size="14.00">бесплатно</text>
</g>
<!-- 16cf1677&#45;2707&#45;4386&#45;b993&#45;6939f968ffa9&#45;&gt;794e2900&#45;d702&#45;4c32&#45;aff6&#45;2480115d608b -->
<g id="edge13" class="edge"><title>16cf1677&#45;2707&#45;4386&#45;b993&#45;6939f968ffa9&#45;&gt;794e2900&#45;d702&#45;4c32&#45;aff6&#45;2480115d608b</title>
<path fill="none" stroke="black" d="M954.761,-261.624C949.791,-256.17 944.889,-249.751 941.697,-243 938.427,-236.086 936.456,-228.097 935.278,-220.562"/>
<polygon fill="black" stroke="black" points="938.724,-219.898 934.089,-210.371 931.771,-220.709 938.724,-219.898"/>
<text text-anchor="middle" x="966.197" y="-231.8" font-family="Times New Roman,serif" font-size="14.00">Вымпел</text>
</g>
<!-- c4c011cd&#45;e6be&#45;4d6a&#45;bdba&#45;6f90392645cf -->
<g id="node15" class="node"><title>c4c011cd&#45;e6be&#45;4d6a&#45;bdba&#45;6f90392645cf</title>
<ellipse fill="none" stroke="black" cx="1056.7" cy="-192" rx="54.6905" ry="18"/>
<text text-anchor="middle" x="1056.7" y="-188.3" font-family="Times New Roman,serif" font-size="14.00">Освещение</text>
</g>
<!-- 16cf1677&#45;2707&#45;4386&#45;b993&#45;6939f968ffa9&#45;&gt;c4c011cd&#45;e6be&#45;4d6a&#45;bdba&#45;6f90392645cf -->
<g id="edge14" class="edge"><title>16cf1677&#45;2707&#45;4386&#45;b993&#45;6939f968ffa9&#45;&gt;c4c011cd&#45;e6be&#45;4d6a&#45;bdba&#45;6f90392645cf</title>
<path fill="none" stroke="black" d="M988.893,-261.611C1001.56,-248.794 1019.34,-230.803 1033.51,-216.46"/>
<polygon fill="black" stroke="black" points="1036.01,-218.912 1040.55,-209.339 1031.03,-213.991 1036.01,-218.912"/>
<text text-anchor="middle" x="1066.7" y="-231.8" font-family="Times New Roman,serif" font-size="14.00">Ледовый каток</text>
</g>
<!-- 8e0a51e1&#45;fd5a&#45;46e0&#45;9da6&#45;208444f65636 -->
<g id="node18" class="node"><title>8e0a51e1&#45;fd5a&#45;46e0&#45;9da6&#45;208444f65636</title>
<ellipse fill="none" stroke="black" cx="1166.7" cy="-192" rx="37.8943" ry="18"/>
<text text-anchor="middle" x="1166.7" y="-188.3" font-family="Times New Roman,serif" font-size="14.00">платно</text>
</g>
<!-- 16cf1677&#45;2707&#45;4386&#45;b993&#45;6939f968ffa9&#45;&gt;8e0a51e1&#45;fd5a&#45;46e0&#45;9da6&#45;208444f65636 -->
<g id="edge17" class="edge"><title>16cf1677&#45;2707&#45;4386&#45;b993&#45;6939f968ffa9&#45;&gt;8e0a51e1&#45;fd5a&#45;46e0&#45;9da6&#45;208444f65636</title>
<path fill="none" stroke="black" d="M1027.61,-271.848C1055.62,-266.974 1089.44,-258.312 1116.7,-243 1128.4,-236.423 1139.23,-226.339 1147.8,-216.945"/>
<polygon fill="black" stroke="black" points="1150.52,-219.154 1154.43,-209.309 1145.23,-214.564 1150.52,-219.154"/>
<text text-anchor="middle" x="1188.7" y="-231.8" font-family="Times New Roman,serif" font-size="14.00">Ледовый дворец</text>
</g>
<!-- d1140599&#45;1216&#45;4d40&#45;bae0&#45;7b52045d2802 -->
<g id="node19" class="node"><title>d1140599&#45;1216&#45;4d40&#45;bae0&#45;7b52045d2802</title>
<ellipse fill="none" stroke="black" cx="1275.7" cy="-192" rx="37.8943" ry="18"/>
<text text-anchor="middle" x="1275.7" y="-188.3" font-family="Times New Roman,serif" font-size="14.00">платно</text>
</g>
<!-- 16cf1677&#45;2707&#45;4386&#45;b993&#45;6939f968ffa9&#45;&gt;d1140599&#45;1216&#45;4d40&#45;bae0&#45;7b52045d2802 -->
<g id="edge18" class="edge"><title>16cf1677&#45;2707&#45;4386&#45;b993&#45;6939f968ffa9&#45;&gt;d1140599&#45;1216&#45;4d40&#45;bae0&#45;7b52045d2802</title>
<path fill="none" stroke="black" d="M1031.76,-276.141C1100.67,-272.988 1209.54,-264.652 1243.7,-243 1252.61,-237.349 1259.52,-228.216 1264.59,-219.292"/>
<polygon fill="black" stroke="black" points="1267.79,-220.72 1269.22,-210.223 1261.56,-217.535 1267.79,-220.72"/>
<text text-anchor="middle" x="1326.7" y="-231.8" font-family="Times New Roman,serif" font-size="14.00">Каток тренировочный</text>
</g>
<!-- befe744a&#45;6039&#45;4f70&#45;9383&#45;632348dcaae4 -->
<g id="node3" class="node"><title>befe744a&#45;6039&#45;4f70&#45;9383&#45;632348dcaae4</title>
<ellipse fill="none" stroke="black" cx="90.6967" cy="-105" rx="35.194" ry="18"/>
<text text-anchor="middle" x="90.6967" y="-101.3" font-family="Times New Roman,serif" font-size="14.00">Округ</text>
</g>
<!-- 7c9cc038&#45;0256&#45;4dd0&#45;b0ee&#45;43eb69aeed6f&#45;&gt;befe744a&#45;6039&#45;4f70&#45;9383&#45;632348dcaae4 -->
<g id="edge2" class="edge"><title>7c9cc038&#45;0256&#45;4dd0&#45;b0ee&#45;43eb69aeed6f&#45;&gt;befe744a&#45;6039&#45;4f70&#45;9383&#45;632348dcaae4</title>
<path fill="none" stroke="black" d="M208.239,-184.812C169.943,-179.145 121.444,-169.567 106.697,-156 100.211,-150.034 96.3423,-141.442 94.0386,-133.059"/>
<polygon fill="black" stroke="black" points="97.4312,-132.185 91.9343,-123.128 90.5832,-133.636 97.4312,-132.185"/>
<text text-anchor="middle" x="140.197" y="-144.8" font-family="Times New Roman,serif" font-size="14.00">смешанное</text>
</g>
<!-- 6da5c11e&#45;ebd0&#45;4cd7&#45;8102&#45;08321b36ffa4 -->
<g id="node6" class="node"><title>6da5c11e&#45;ebd0&#45;4cd7&#45;8102&#45;08321b36ffa4</title>
<ellipse fill="none" stroke="black" cx="181.697" cy="-105" rx="37.8943" ry="18"/>
<text text-anchor="middle" x="181.697" y="-101.3" font-family="Times New Roman,serif" font-size="14.00">платно</text>
</g>
<!-- 7c9cc038&#45;0256&#45;4dd0&#45;b0ee&#45;43eb69aeed6f&#45;&gt;6da5c11e&#45;ebd0&#45;4cd7&#45;8102&#45;08321b36ffa4 -->
<g id="edge5" class="edge"><title>7c9cc038&#45;0256&#45;4dd0&#45;b0ee&#45;43eb69aeed6f&#45;&gt;6da5c11e&#45;ebd0&#45;4cd7&#45;8102&#45;08321b36ffa4</title>
<path fill="none" stroke="black" d="M215.694,-180.747C202.931,-175.507 190.334,-167.668 182.697,-156 178.332,-149.333 176.969,-141.019 177.015,-133.097"/>
<polygon fill="black" stroke="black" points="180.509,-133.31 177.755,-123.079 173.528,-132.794 180.509,-133.31"/>
<text text-anchor="middle" x="248.197" y="-144.8" font-family="Times New Roman,serif" font-size="14.00">лампами накаливания</text>
</g>
<!-- 4fbfa4b8&#45;68c5&#45;4596&#45;83f4&#45;1cc7c9461e96 -->
<g id="node7" class="node"><title>4fbfa4b8&#45;68c5&#45;4596&#45;83f4&#45;1cc7c9461e96</title>
<ellipse fill="none" stroke="black" cx="335.697" cy="-105" rx="37.8943" ry="18"/>
<text text-anchor="middle" x="335.697" y="-101.3" font-family="Times New Roman,serif" font-size="14.00">платно</text>
</g>
<!-- 7c9cc038&#45;0256&#45;4dd0&#45;b0ee&#45;43eb69aeed6f&#45;&gt;4fbfa4b8&#45;68c5&#45;4596&#45;83f4&#45;1cc7c9461e96 -->
<g id="edge6" class="edge"><title>7c9cc038&#45;0256&#45;4dd0&#45;b0ee&#45;43eb69aeed6f&#45;&gt;4fbfa4b8&#45;68c5&#45;4596&#45;83f4&#45;1cc7c9461e96</title>
<path fill="none" stroke="black" d="M288.002,-176.736C297.117,-171.228 306.62,-164.245 313.697,-156 319.493,-149.247 323.996,-140.725 327.375,-132.64"/>
<polygon fill="black" stroke="black" points="330.703,-133.734 330.951,-123.142 324.152,-131.268 330.703,-133.734"/>
<text text-anchor="middle" x="402.197" y="-144.8" font-family="Times New Roman,serif" font-size="14.00">газоразрядными лампами</text>
</g>
<!-- e34b0949&#45;078e&#45;45ba&#45;8445&#45;16462df866ba -->
<g id="node4" class="node"><title>e34b0949&#45;078e&#45;45ba&#45;8445&#45;16462df866ba</title>
<ellipse fill="none" stroke="black" cx="37.6967" cy="-18" rx="37.8943" ry="18"/>
<text text-anchor="middle" x="37.6967" y="-14.3" font-family="Times New Roman,serif" font-size="14.00">платно</text>
</g>
<!-- befe744a&#45;6039&#45;4f70&#45;9383&#45;632348dcaae4&#45;&gt;e34b0949&#45;078e&#45;45ba&#45;8445&#45;16462df866ba -->
<g id="edge3" class="edge"><title>befe744a&#45;6039&#45;4f70&#45;9383&#45;632348dcaae4&#45;&gt;e34b0949&#45;078e&#45;45ba&#45;8445&#45;16462df866ba</title>
<path fill="none" stroke="black" d="M70.6558,-89.797C63.7825,-84.0379 56.596,-76.8808 51.6967,-69 47.3947,-62.08 44.3853,-53.8132 42.292,-46.0134"/>
<polygon fill="black" stroke="black" points="45.6838,-45.1454 40.0362,-36.1813 38.8611,-46.7108 45.6838,-45.1454"/>
<text text-anchor="middle" x="86.6967" y="-57.8" font-family="Times New Roman,serif" font-size="14.00">Восточный</text>
</g>
<!-- 22468a9f&#45;454b&#45;47c5&#45;9c4b&#45;43d6f60b716e -->
<g id="node5" class="node"><title>22468a9f&#45;454b&#45;47c5&#45;9c4b&#45;43d6f60b716e</title>
<ellipse fill="none" stroke="black" cx="143.697" cy="-18" rx="50.8918" ry="18"/>
<text text-anchor="middle" x="143.697" y="-14.3" font-family="Times New Roman,serif" font-size="14.00">бесплатно</text>
</g>
<!-- befe744a&#45;6039&#45;4f70&#45;9383&#45;632348dcaae4&#45;&gt;22468a9f&#45;454b&#45;47c5&#45;9c4b&#45;43d6f60b716e -->
<g id="edge4" class="edge"><title>befe744a&#45;6039&#45;4f70&#45;9383&#45;632348dcaae4&#45;&gt;22468a9f&#45;454b&#45;47c5&#45;9c4b&#45;43d6f60b716e</title>
<path fill="none" stroke="black" d="M106.324,-88.4639C111.631,-82.671 117.319,-75.8352 121.697,-69 126.3,-61.8127 130.386,-53.4991 133.749,-45.7396"/>
<polygon fill="black" stroke="black" points="137.051,-46.9137 137.607,-36.3335 130.574,-44.2573 137.051,-46.9137"/>
<text text-anchor="middle" x="181.197" y="-57.8" font-family="Times New Roman,serif" font-size="14.00">Юго&#45;Восточный</text>
</g>
<!-- d0524c1f&#45;37a7&#45;4b81&#45;b40b&#45;6d3c827727e8 -->
<g id="node9" class="node"><title>d0524c1f&#45;37a7&#45;4b81&#45;b40b&#45;6d3c827727e8</title>
<ellipse fill="none" stroke="black" cx="512.697" cy="-105" rx="37.8943" ry="18"/>
<text text-anchor="middle" x="512.697" y="-101.3" font-family="Times New Roman,serif" font-size="14.00">платно</text>
</g>
<!-- a254f788&#45;d57a&#45;4502&#45;8362&#45;a333d5510135&#45;&gt;d0524c1f&#45;37a7&#45;4b81&#45;b40b&#45;6d3c827727e8 -->
<g id="edge8" class="edge"><title>a254f788&#45;d57a&#45;4502&#45;8362&#45;a333d5510135&#45;&gt;d0524c1f&#45;37a7&#45;4b81&#45;b40b&#45;6d3c827727e8</title>
<path fill="none" stroke="black" d="M733.72,-188.779C679.462,-184.788 578.086,-174.992 547.697,-156 538.397,-150.188 530.896,-140.903 525.259,-131.903"/>
<polygon fill="black" stroke="black" points="528.249,-130.08 520.246,-123.137 522.172,-133.555 528.249,-130.08"/>
<text text-anchor="middle" x="578.197" y="-144.8" font-family="Times New Roman,serif" font-size="14.00">Северный</text>
</g>
<!-- 7a740a77&#45;227e&#45;4d69&#45;9bcf&#45;a5e4eef26f42 -->
<g id="node10" class="node"><title>7a740a77&#45;227e&#45;4d69&#45;9bcf&#45;a5e4eef26f42</title>
<ellipse fill="none" stroke="black" cx="605.697" cy="-105" rx="37.8943" ry="18"/>
<text text-anchor="middle" x="605.697" y="-101.3" font-family="Times New Roman,serif" font-size="14.00">платно</text>
</g>
<!-- a254f788&#45;d57a&#45;4502&#45;8362&#45;a333d5510135&#45;&gt;7a740a77&#45;227e&#45;4d69&#45;9bcf&#45;a5e4eef26f42 -->
<g id="edge9" class="edge"><title>a254f788&#45;d57a&#45;4502&#45;8362&#45;a333d5510135&#45;&gt;7a740a77&#45;227e&#45;4d69&#45;9bcf&#45;a5e4eef26f42</title>
<path fill="none" stroke="black" d="M734.937,-186.842C696.811,-181.495 637.956,-171.069 621.697,-156 615.233,-150.01 611.37,-141.412 609.064,-133.031"/>
<polygon fill="black" stroke="black" points="612.457,-132.159 606.955,-123.105 605.61,-133.614 612.457,-132.159"/>
<text text-anchor="middle" x="680.697" y="-144.8" font-family="Times New Roman,serif" font-size="14.00">Северо&#45;Восточный</text>
</g>
<!-- ab9cdb66&#45;cb5b&#45;4f2a&#45;956f&#45;17dad1eedb0d -->
<g id="node11" class="node"><title>ab9cdb66&#45;cb5b&#45;4f2a&#45;956f&#45;17dad1eedb0d</title>
<ellipse fill="none" stroke="black" cx="743.697" cy="-105" rx="50.8918" ry="18"/>
<text text-anchor="middle" x="743.697" y="-101.3" font-family="Times New Roman,serif" font-size="14.00">бесплатно</text>
</g>
<!-- a254f788&#45;d57a&#45;4502&#45;8362&#45;a333d5510135&#45;&gt;ab9cdb66&#45;cb5b&#45;4f2a&#45;956f&#45;17dad1eedb0d -->
<g id="edge10" class="edge"><title>a254f788&#45;d57a&#45;4502&#45;8362&#45;a333d5510135&#45;&gt;ab9cdb66&#45;cb5b&#45;4f2a&#45;956f&#45;17dad1eedb0d</title>
<path fill="none" stroke="black" d="M755.717,-175.213C751.756,-169.504 747.875,-162.784 745.697,-156 743.386,-148.804 742.415,-140.724 742.14,-133.192"/>
<polygon fill="black" stroke="black" points="745.64,-133.062 742.147,-123.059 738.64,-133.057 745.64,-133.062"/>
<text text-anchor="middle" x="786.697" y="-144.8" font-family="Times New Roman,serif" font-size="14.00">Центральный</text>
</g>
<!-- 82b38f53&#45;25b1&#45;4d86&#45;b8fc&#45;ac5924692a84 -->
<g id="node12" class="node"><title>82b38f53&#45;25b1&#45;4d86&#45;b8fc&#45;ac5924692a84</title>
<ellipse fill="none" stroke="black" cx="849.697" cy="-105" rx="37.8943" ry="18"/>
<text text-anchor="middle" x="849.697" y="-101.3" font-family="Times New Roman,serif" font-size="14.00">платно</text>
</g>
<!-- a254f788&#45;d57a&#45;4502&#45;8362&#45;a333d5510135&#45;&gt;82b38f53&#45;25b1&#45;4d86&#45;b8fc&#45;ac5924692a84 -->
<g id="edge11" class="edge"><title>a254f788&#45;d57a&#45;4502&#45;8362&#45;a333d5510135&#45;&gt;82b38f53&#45;25b1&#45;4d86&#45;b8fc&#45;ac5924692a84</title>
<path fill="none" stroke="black" d="M795.005,-179.868C806.231,-174.074 818.773,-166.074 827.697,-156 833.598,-149.338 838.129,-140.841 841.502,-132.75"/>
<polygon fill="black" stroke="black" points="844.836,-133.826 845.055,-123.233 838.278,-131.377 844.836,-133.826"/>
<text text-anchor="middle" x="872.697" y="-144.8" font-family="Times New Roman,serif" font-size="14.00">Восточный</text>
</g>
<!-- 05f7d049&#45;c4d0&#45;47d7&#45;9a92&#45;010390267cb9 -->
<g id="node13" class="node"><title>05f7d049&#45;c4d0&#45;47d7&#45;9a92&#45;010390267cb9</title>
<ellipse fill="none" stroke="black" cx="942.697" cy="-105" rx="37.8943" ry="18"/>
<text text-anchor="middle" x="942.697" y="-101.3" font-family="Times New Roman,serif" font-size="14.00">платно</text>
</g>
<!-- a254f788&#45;d57a&#45;4502&#45;8362&#45;a333d5510135&#45;&gt;05f7d049&#45;c4d0&#45;47d7&#45;9a92&#45;010390267cb9 -->
<g id="edge12" class="edge"><title>a254f788&#45;d57a&#45;4502&#45;8362&#45;a333d5510135&#45;&gt;05f7d049&#45;c4d0&#45;47d7&#45;9a92&#45;010390267cb9</title>
<path fill="none" stroke="black" d="M801.94,-185.852C838.501,-179.678 894.374,-168.575 911.697,-156 920.162,-149.855 926.816,-140.623 931.753,-131.759"/>
<polygon fill="black" stroke="black" points="934.894,-133.302 936.28,-122.799 928.646,-130.146 934.894,-133.302"/>
<text text-anchor="middle" x="978.197" y="-144.8" font-family="Times New Roman,serif" font-size="14.00">Юго&#45;Восточный</text>
</g>
<!-- bf6afe00&#45;c8a0&#45;4043&#45;84b6&#45;6467f83e66b3 -->
<g id="node16" class="node"><title>bf6afe00&#45;c8a0&#45;4043&#45;84b6&#45;6467f83e66b3</title>
<ellipse fill="none" stroke="black" cx="1068.7" cy="-105" rx="50.8918" ry="18"/>
<text text-anchor="middle" x="1068.7" y="-101.3" font-family="Times New Roman,serif" font-size="14.00">бесплатно</text>
</g>
<!-- c4c011cd&#45;e6be&#45;4d6a&#45;bdba&#45;6f90392645cf&#45;&gt;bf6afe00&#45;c8a0&#45;4043&#45;84b6&#45;6467f83e66b3 -->
<g id="edge15" class="edge"><title>c4c011cd&#45;e6be&#45;4d6a&#45;bdba&#45;6f90392645cf&#45;&gt;bf6afe00&#45;c8a0&#45;4043&#45;84b6&#45;6467f83e66b3</title>
<path fill="none" stroke="black" d="M1059.13,-173.799C1060.77,-162.163 1062.97,-146.548 1064.85,-133.237"/>
<polygon fill="black" stroke="black" points="1068.34,-133.567 1066.27,-123.175 1061.41,-132.588 1068.34,-133.567"/>
<text text-anchor="middle" x="1097.2" y="-144.8" font-family="Times New Roman,serif" font-size="14.00">смешанное</text>
</g>
<!-- 09ba9ba5&#45;ee42&#45;4c25&#45;a994&#45;a90771a188a5 -->
<g id="node17" class="node"><title>09ba9ba5&#45;ee42&#45;4c25&#45;a994&#45;a90771a188a5</title>
<ellipse fill="none" stroke="black" cx="1174.7" cy="-105" rx="37.8943" ry="18"/>
<text text-anchor="middle" x="1174.7" y="-101.3" font-family="Times New Roman,serif" font-size="14.00">платно</text>
</g>
<!-- c4c011cd&#45;e6be&#45;4d6a&#45;bdba&#45;6f90392645cf&#45;&gt;09ba9ba5&#45;ee42&#45;4c25&#45;a994&#45;a90771a188a5 -->
<g id="edge16" class="edge"><title>c4c011cd&#45;e6be&#45;4d6a&#45;bdba&#45;6f90392645cf&#45;&gt;09ba9ba5&#45;ee42&#45;4c25&#45;a994&#45;a90771a188a5</title>
<path fill="none" stroke="black" d="M1093.63,-178.631C1107.33,-172.999 1122.49,-165.451 1134.7,-156 1143.76,-148.985 1152,-139.515 1158.62,-130.703"/>
<polygon fill="black" stroke="black" points="1161.48,-132.728 1164.45,-122.558 1155.79,-128.656 1161.48,-132.728"/>
<text text-anchor="middle" x="1229.2" y="-144.8" font-family="Times New Roman,serif" font-size="14.00">газоразрядными лампами</text>
</g>
</g>
</svg>
